<?xml version="1.0" encoding="utf-8"?>
<!-- Generator: Adobe Illustrator 26.0.1, SVG Export Plug-In . SVG Version: 6.00 Build 0)  -->
<svg version="1.1" id="Layer_1" xmlns="http://www.w3.org/2000/svg" xmlns:xlink="http://www.w3.org/1999/xlink" x="0px" y="0px"
	 viewBox="0 0 550.61 160.85" style="enable-background:new 0 0 550.61 160.85;" xml:space="preserve">
<style type="text/css">
	.st0{fill-rule:evenodd;clip-rule:evenodd;fill:#2B3F5F;}
	.st1{fill-rule:evenodd;clip-rule:evenodd;fill:#231F20;}
	.st2{fill-rule:evenodd;clip-rule:evenodd;fill:#010101;}
	.st3{fill-rule:evenodd;clip-rule:evenodd;fill:#FFFFFF;}
	.st4{fill-rule:evenodd;clip-rule:evenodd;fill:#657696;}
	.st5{fill-rule:evenodd;clip-rule:evenodd;fill:#435C83;}
</style>
<g>
	<g>
		<polygon id="XMLID_70_" class="st0" points="164.84,46.37 206.03,46.37 202.87,51.76 172.68,51.76 		"/>
		<polygon id="XMLID_69_" class="st0" points="181.34,56.9 178.06,62.64 194.8,62.64 219.02,62.64 210.71,56.9 		"/>
		<polygon id="XMLID_68_" class="st0" points="195.03,90.72 194.8,62.17 201.23,61.82 201.11,94.35 		"/>
		<polygon id="XMLID_67_" class="st0" points="183.21,68.26 189.06,68.26 189.06,98.1 183.44,106.4 		"/>
		<path id="XMLID_60_" class="st1" d="M217.61,83.7h10.18c1.4,0,2.57-1.17,2.57-2.57s-1.17-2.57-2.57-2.57h-10.18V73.4h12.76
			c1.4,0,2.57-1.17,2.57-2.57s-1.17-2.57-2.57-2.57h-15.33c-1.4,0-2.57,1.17-2.57,2.57v20.48c0,1.4,1.17,2.57,2.57,2.57h15.33
			c1.4,0,2.57-1.17,2.57-2.57s-1.17-2.57-2.57-2.57h-12.76V83.7L217.61,83.7z M259.98,90.14c0.47-0.47,0.7-1.17,0.7-1.76
			c0-1.4-1.17-2.57-2.57-2.57c-0.7,0-1.29,0.23-1.76,0.7c-1.52,1.52-3.51,2.22-5.38,2.22c-4.21,0-7.72-3.39-7.72-7.72
			c0-4.21,3.39-7.72,7.72-7.72c1.99,0,3.98,0.7,5.38,2.22c0.47,0.47,1.17,0.7,1.76,0.7c1.4,0,2.57-1.17,2.57-2.57
			c0-0.59-0.23-1.29-0.7-1.76c-2.57-2.46-5.73-3.74-9.01-3.74c-7.02,0-12.76,5.73-12.76,12.76s5.73,12.76,12.76,12.76
			C254.24,93.88,257.52,92.71,259.98,90.14L259.98,90.14L259.98,90.14z M273.43,83.7h12.76v7.72c0,1.4,1.17,2.57,2.57,2.57
			s2.57-1.17,2.57-2.57V70.95c0-1.4-1.17-2.57-2.57-2.57s-2.57,1.17-2.57,2.57v7.72h-12.76v-7.72c0-1.4-1.17-2.57-2.57-2.57
			c-1.4,0-2.57,1.17-2.57,2.57v20.48c0,1.4,1.17,2.57,2.57,2.57c1.4,0,2.57-1.17,2.57-2.57V83.7L273.43,83.7z M320.47,85.22
			l-16.15-16.15c-0.47-0.47-1.17-0.7-1.76-0.7c-1.4,0-2.57,1.17-2.57,2.57v20.48c0,1.4,1.17,2.57,2.57,2.57
			c1.4,0,2.57-1.17,2.57-2.57V77.15l16.15,16.15c0.47,0.47,1.17,0.7,1.76,0.7c1.4,0,2.57-1.17,2.57-2.57V70.95
			c0-1.4-1.17-2.57-2.57-2.57c-1.4,0-2.57,1.17-2.57,2.57V85.22L320.47,85.22z M333.46,81.13c0,7.02,5.73,12.76,12.76,12.76
			s12.76-5.73,12.76-12.76s-5.73-12.76-12.76-12.76C339.08,68.37,333.46,74.11,333.46,81.13L333.46,81.13z M338.5,81.13
			c0-4.21,3.39-7.72,7.72-7.72c4.21,0,7.72,3.39,7.72,7.72c0,4.21-3.39,7.72-7.72,7.72C342.01,88.85,338.5,85.34,338.5,81.13z"/>
		<g id="XMLID_57_">
			<polygon id="XMLID_59_" class="st0" points="418.77,63.34 522.68,63.34 532.28,82.18 522.68,98.8 418.77,98.8 			"/>
			<path id="XMLID_58_" class="st0" d="M395.95,46.37c18.84,0,34.05,15.21,34.05,34.05s-15.21,34.05-34.05,34.05
				c-18.84,0-34.05-15.21-34.05-34.05S377.23,46.37,395.95,46.37z"/>
		</g>
		<path id="XMLID_56_" class="st2" d="M191.17,97.74c4.33,0,7.84,3.51,7.84,7.84s-3.51,7.84-7.84,7.84s-7.84-3.51-7.84-7.84
			C183.33,101.25,186.84,97.74,191.17,97.74z"/>
		<path id="XMLID_55_" class="st2" d="M165.31,46.37c4.33,0,7.84,3.51,7.84,7.84s-3.51,7.84-7.84,7.84s-7.84-3.51-7.84-7.84
			S160.98,46.37,165.31,46.37z"/>
		<g id="XMLID_49_">
			<polygon id="XMLID_54_" class="st3" points="165.66,51.76 167.76,52.81 169.75,51.52 165.66,49.18 			"/>
			<polygon id="XMLID_53_" class="st3" points="161.21,51.64 165.31,49.18 165.31,51.87 163.43,52.93 			"/>
			<polygon id="XMLID_52_" class="st3" points="163.2,53.28 163.2,55.38 160.86,56.55 160.86,51.87 			"/>
			<polygon id="XMLID_51_" class="st3" points="161.21,56.9 165.31,59.25 165.31,56.79 163.32,55.73 			"/>
			<polygon id="XMLID_50_" class="st3" points="165.78,56.67 165.78,59.36 169.75,56.9 167.76,55.73 			"/>
		</g>
		<g id="XMLID_43_">
			<polygon id="XMLID_48_" class="st3" points="191.52,103.13 193.63,104.18 195.61,102.89 191.52,100.55 			"/>
			<polygon id="XMLID_47_" class="st3" points="187.07,103.01 191.17,100.55 191.17,103.24 189.3,104.3 			"/>
			<polygon id="XMLID_46_" class="st3" points="189.06,104.65 189.06,106.75 186.72,107.93 186.72,103.36 			"/>
			<polygon id="XMLID_45_" class="st3" points="187.07,108.39 191.17,110.73 191.17,108.16 189.18,107.11 			"/>
			<polygon id="XMLID_44_" class="st3" points="191.64,108.16 191.64,110.73 195.61,108.39 193.63,107.22 			"/>
		</g>
		<path id="XMLID_42_" class="st2" d="M218.2,46.96c4.33,0,7.84,3.51,7.84,7.84s-3.51,7.84-7.84,7.84s-7.84-3.51-7.84-7.84
			S213.87,46.96,218.2,46.96z"/>
		<g id="XMLID_36_">
			<polygon id="XMLID_41_" class="st3" points="218.43,52.46 220.66,53.39 222.65,52.11 218.55,49.77 			"/>
			<polygon id="XMLID_40_" class="st3" points="214.1,52.22 218.08,49.77 218.08,52.46 216.21,53.51 			"/>
			<polygon id="XMLID_39_" class="st3" points="216.09,53.86 216.09,55.97 213.75,57.14 213.75,52.57 			"/>
			<polygon id="XMLID_38_" class="st3" points="214.1,57.61 218.08,59.95 218.08,57.37 216.21,56.32 			"/>
			<polygon id="XMLID_37_" class="st3" points="218.55,57.37 218.67,59.95 222.65,57.61 220.66,56.44 			"/>
		</g>
		<g id="XMLID_30_">
			<polygon id="XMLID_35_" class="st3" points="397.24,69.78 406.37,74.11 415.38,68.72 397.24,58.78 			"/>
			<polygon id="XMLID_34_" class="st3" points="378.17,69.19 395.6,58.78 395.6,70.13 387.53,74.69 			"/>
			<polygon id="XMLID_33_" class="st3" points="386.71,76.21 386.71,85.46 376.64,90.61 376.64,70.36 			"/>
			<polygon id="XMLID_32_" class="st3" points="378.05,92.24 395.72,102.43 395.6,91.31 387.29,86.86 			"/>
			<polygon id="XMLID_31_" class="st3" points="397.71,91.19 397.71,102.54 415.38,92.24 406.72,87.1 			"/>
		</g>
		<path id="XMLID_23_" class="st3" d="M427.43,83.23h3.51l8.19,8.19c0.47,0.47,1.05,0.7,1.52,0.7c1.17,0,2.22-1.05,2.22-2.22
			c0-0.59-0.23-1.17-0.7-1.52l-5.15-5.03c3.28-0.47,5.73-3.16,5.73-6.55c0-3.63-2.93-6.55-6.55-6.55h-11
			c-1.17,0-2.22,1.05-2.22,2.22v17.55c0,1.17,1.05,2.22,2.22,2.22c1.17,0,2.22-1.05,2.22-2.22L427.43,83.23L427.43,83.23z
			 M436.21,74.46c1.17,0,2.22,1.05,2.22,2.22c0,1.17-1.05,2.22-2.22,2.22h-8.78v-4.45H436.21L436.21,74.46z M469.56,79.96
			c0-5.5-4.45-9.95-9.95-9.95s-9.95,4.45-9.95,9.95v9.95c0,1.17,1.05,2.22,2.22,2.22c1.17,0,2.22-1.05,2.22-2.22v-4.45h11v4.45
			c0,1.17,1.05,2.22,2.22,2.22s2.22-1.05,2.22-2.22L469.56,79.96L469.56,79.96z M454.11,79.96c0-3.04,2.46-5.5,5.5-5.5
			s5.5,2.46,5.5,5.5v1.05h-11L454.11,79.96L454.11,79.96z M481.49,89.79c0,1.17,1.05,2.22,2.22,2.22s2.22-1.05,2.22-2.22V74.46h5.5
			c1.17,0,2.22-1.05,2.22-2.22c0-1.17-1.05-2.22-2.22-2.22h-15.45c-1.17,0-2.22,1.05-2.22,2.22c0,1.17,1.05,2.22,2.22,2.22h5.5
			V89.79L481.49,89.79z M504.31,83.23h8.78c1.17,0,2.22-1.05,2.22-2.22c0-1.17-1.05-2.22-2.22-2.22h-8.78v-4.33h11
			c1.17,0,2.22-1.05,2.22-2.22c0-1.17-1.05-2.22-2.22-2.22h-13.22c-1.17,0-2.22,1.05-2.22,2.22v17.55c0,1.17,1.05,2.22,2.22,2.22
			h13.22c1.17,0,2.22-1.05,2.22-2.22c0-1.17-1.05-2.22-2.22-2.22h-11L504.31,83.23L504.31,83.23z"/>
	</g>
	<g id="XMLID_3_">
		<polygon id="XMLID_22_" class="st4" points="18.49,43.67 82.11,80.12 145.81,43.6 82.19,7.08 		"/>
		<polygon id="XMLID_21_" class="st5" points="145.81,43.6 82.11,80.12 82.11,153.77 145.81,117.25 		"/>
		<polygon id="XMLID_20_" class="st0" points="18.33,43.6 82.11,80.12 82.11,153.77 18.33,117.25 18.33,68.54 		"/>
		<polygon id="XMLID_19_" class="st3" points="33.93,52.48 62.42,36.11 68.75,39.74 40.34,56.18 		"/>
		<polygon id="XMLID_18_" class="st3" points="101.1,35.41 130.83,52.17 124.34,55.95 95.23,38.96 		"/>
		<g id="XMLID_15_">
			<polygon id="XMLID_17_" class="st3" points="79.02,31.55 79.17,8.78 82.19,7.08 85.51,9.01 85.43,31.32 			"/>
			<path id="XMLID_16_" class="st3" d="M88.36,31.55c3.09,2.39,2.7,6.18-0.77,8.42s-8.72,2.08-11.81-0.39
				c-3.09-2.39-2.7-6.18,0.77-8.42S85.27,29.08,88.36,31.55z"/>
		</g>
		<g id="XMLID_10_">
			<polygon id="XMLID_14_" class="st3" points="130.83,52.17 130.83,85.06 124.34,88.92 124.34,55.95 			"/>
			<polygon id="XMLID_13_" class="st3" points="110.98,116.79 82.11,133.7 81.57,126.6 110.91,110 			"/>
			<polygon id="XMLID_12_" class="st3" points="125.65,102.04 145.81,113.63 145.81,117.25 142.64,119.11 123.03,107.91 			"/>
			<path id="XMLID_11_" class="st3" d="M120.56,94.94c3.71-1.31,6.72,1,6.72,5.1s-2.93,8.49-6.56,9.81c-3.71,1.31-6.72-1-6.72-5.1
				C113.92,100.58,116.85,96.25,120.56,94.94z"/>
		</g>
		<g id="XMLID_4_">
			<polygon id="XMLID_9_" class="st3" points="33.85,86.45 33.93,52.48 40.34,56.18 40.26,90.15 			"/>
			<polygon id="XMLID_8_" class="st3" points="82.11,133.7 53.08,117.64 53,110.38 82.11,126.29 			"/>
			<g id="XMLID_5_">
				<polygon id="XMLID_7_" class="st3" points="18.33,113.78 35.17,104.13 38.64,109.38 21.65,119.18 18.33,117.25 				"/>
				<path id="XMLID_6_" class="st3" d="M34.16,100.5c0.69-3.86,4.09-5.4,7.72-3.4c3.63,1.93,6.02,6.64,5.33,10.5
					c-0.69,3.86-4.09,5.4-7.72,3.4C35.86,109.07,33.47,104.36,34.16,100.5z"/>
			</g>
		</g>
	</g>
</g>
</svg>
