<?xml version="1.0" encoding="utf-8"?>
<!-- Generator: Adobe Illustrator 26.0.1, SVG Export Plug-In . SVG Version: 6.00 Build 0)  -->
<svg version="1.1" id="Layer_1" xmlns="http://www.w3.org/2000/svg" xmlns:xlink="http://www.w3.org/1999/xlink" x="0px" y="0px"
	 viewBox="0 0 1920 1080" style="enable-background:new 0 0 1920 1080;" xml:space="preserve">
<style type="text/css">
	.st0{fill:#646FAD;}
	.st1{fill:#303669;}
	.st2{fill:#FFFFFF;}
	.st3{fill:#A0C6F4;}
	.st4{fill:none;stroke:#2A1E17;stroke-linecap:round;stroke-linejoin:round;stroke-miterlimit:10;}
	.st5{fill:#2A1E17;}
	.st6{fill:#EAECEC;}
	.st7{fill:#F9865F;}
	.st8{fill:#2A1E33;}
	.st9{fill:#7595EC;}
	.st10{fill:#FF8A66;}
	.st11{fill:#FFF7C9;}
	.st12{fill:none;stroke:#2A1E33;stroke-linecap:round;stroke-linejoin:round;stroke-miterlimit:10;}
	.st13{fill:none;stroke:#171B43;stroke-linecap:round;stroke-linejoin:round;stroke-miterlimit:10;}
	.st14{fill:#FF6D66;}
	.st15{fill:#FAD8B0;}
	.st16{fill:#C6CBCB;}
	.st17{fill:#FFF7DC;}
	.st18{fill:#FFE1C0;}
	.st19{fill:#FFFFFF;stroke:#2A1E17;stroke-linecap:round;stroke-linejoin:round;stroke-miterlimit:10;}
	.st20{fill:#91BA83;}
	.st21{fill:none;stroke:#7595EC;stroke-linecap:round;stroke-linejoin:round;stroke-miterlimit:10;}
	.st22{fill:#96BD89;}
	.st23{fill:none;stroke:#FF6D66;stroke-linecap:round;stroke-linejoin:round;stroke-miterlimit:10;}
	.st24{fill:none;stroke:#FAD8B0;stroke-miterlimit:10;}
	.st25{fill:none;stroke:#A0C6F4;stroke-linecap:round;stroke-linejoin:round;stroke-miterlimit:10;}
</style>
<path class="st1" d="M1389,450.13v291.32c-34.02,14.02-70.36,23.33-105.65,25.87c-55.02,3.96-98.64,16.2-148.01,19.64
	c-60.36,4.2-88.37,48.28-98.11,104.39c-4.57,26.34-6.43,53.27-14.16,78.85c-18.46,61.03-69.82,82.16-129.95,79.16
	c-35.02-1.74-70.23-8.59-104.9-3.29c-29.72,4.56-55.83,17.18-80.14,33.93H0V0h662.25c16.07,25.79,31.6,53.65,46.89,83.69
	c25.43,49.95,75.99,88.33,131.18,98.11c47.15,8.36,97.4-8.18,142.76,7.18c92.52,31.33,104.43,167.94,189.56,215.85
	c37.14,20.91,81.6,22.98,123.88,28.4C1331.45,437.71,1362.16,443.41,1389,450.13z"/>
</svg>
