<?xml version="1.0" encoding="utf-8"?>
<!-- Generator: Adobe Illustrator 26.0.1, SVG Export Plug-In . SVG Version: 6.00 Build 0)  -->
<svg version="1.1" id="Layer_1" xmlns="http://www.w3.org/2000/svg" xmlns:xlink="http://www.w3.org/1999/xlink" x="0px" y="0px"
	 viewBox="0 0 1105 910" style="enable-background:new 0 0 1105 910;" xml:space="preserve">
<style type="text/css">
	.st0{fill:#646FAD;}
	.st1{fill:#303669;}
	.st2{fill:#FFFFFF;}
	.st3{fill:#A0C6F4;}
	.st4{fill:none;stroke:#2A1E17;stroke-linecap:round;stroke-linejoin:round;stroke-miterlimit:10;}
	.st5{fill:#EAECEC;}
	.st6{fill:#2A1E17;}
	.st7{fill:#F9865F;}
	.st8{fill:#FF6D66;}
	.st9{fill:#FAD8B0;}
	.st10{fill:#FFF7DC;}
	.st11{fill:#FFE1C0;}
	.st12{fill:#FFFFFF;stroke:#2A1E17;stroke-linecap:round;stroke-linejoin:round;stroke-miterlimit:10;}
	.st13{fill:#91BA83;}
	.st14{fill:none;stroke:#7595EC;stroke-linecap:round;stroke-linejoin:round;stroke-miterlimit:10;}
	.st15{fill:#96BD89;}
	.st16{fill:none;stroke:#FF6D66;stroke-linecap:round;stroke-linejoin:round;stroke-miterlimit:10;}
	.st17{fill:none;stroke:#FAD8B0;stroke-miterlimit:10;}
	.st18{fill:none;stroke:#A0C6F4;stroke-linecap:round;stroke-linejoin:round;stroke-miterlimit:10;}
	.st19{fill:#2A1E33;}
	.st20{fill:#7595EC;}
	.st21{fill:#FF8A66;}
	.st22{fill:#FFF7C9;}
	.st23{fill:none;stroke:#2A1E33;stroke-linecap:round;stroke-linejoin:round;stroke-miterlimit:10;}
	.st24{fill:#C6CBCB;}
	.st25{fill:none;stroke:#171B43;stroke-linecap:round;stroke-linejoin:round;stroke-miterlimit:10;}
	.st26{fill:none;}
</style>
<g>
	<path class="st6" d="M681.69,410.77c-5.44-4-9.02-6.69-9.02-6.69c1.51-2.01,25.36-27.43,39.18-47.9
		C711.85,356.18,683.92,412.4,681.69,410.77z"/>
	<path class="st4" d="M343.68,225.53c2.66,4.43,3.84,2.66,11.51,2.07c7.67-0.59,18.6,5.02,22.43,14.46s2.66,10.92,0.59,12.1
		c-2.07,1.18-16.83,2.95-17.42,5.9"/>
	<g>
		<polygon class="st7" points="542.54,705.96 535.66,694.34 511.26,735 517.67,739.93 		"/>
		<path class="st7" d="M380.54,605.12c0,0-12.64-20.55-7.22-30.63l40.33,4.31L380.54,605.12z"/>
		<path d="M380.54,605.12l2.42,5.55l-7.45,29.06c-0.94,3.66,0.28,7.53,3.14,10l0,0l36.88-54.52c3.5-5.18,2.71-12.14-1.87-16.4
			l-8.24-7.66L380.54,605.12z"/>
		<path class="st19" d="M360.8,260.06c11.55-0.27,26.19-1.01,23.26-9.79c-2.93-8.78-13.9-30.74-38.79-24.15c0,0-8.78,7.32,2.2,20.49
			C358.45,259.79,360.8,260.06,360.8,260.06z"/>
		<path class="st20" d="M419.26,579.3c0,0-19.72-58.21-3.03-83.77c13.77-21.09,58.75,13.22,64.92,17.84l32.19-58.13
			c0,0-7.43-10.42-25.67-20.62c-18.24-10.2-93.6-40.74-129.02,15.13c-13.09,20.65-13.29,109.27,11.81,143.23L419.26,579.3z"/>
		<path class="st4" d="M419.26,579.3c0,0-19.72-58.21-3.03-83.77c13.77-21.09,58.75,13.22,64.92,17.84"/>
		<path class="st20" d="M513.33,455.24c-14.64,15.41-58.04,90.47-67.8,126.35c-13.05,47.99-8.15,87.79,63.6,165.72l34.68-50.52
			c0,0-24.39-37.03-19.83-71.93c6.59-50.5,42.52-99.46,60.7-130.51L513.33,455.24z"/>
		<polygon class="st6" points="518.84,461.76 576.53,507.04 593.77,480.83 		"/>
		<path class="st21" d="M850.2,414.16c9,1.93,15.85,5.36,20.56,10.28c4.71,4.93,2.57,7.5,0.86,9c-1.71,1.5-8.35-0.21-14.14-5.36
			S850.2,414.16,850.2,414.16z"/>
		<path class="st7" d="M672.67,404.08c1.51-2.01,25.36-27.43,39.18-47.9c0,0,41.74,46.77,46.27,48.28
			c1.68,0.56,11.92,0.43,24.63,0.3c21.48-0.22,50.03-0.44,56.35,2.72c10.06,5.03,16.09,7.54,18.61,14.59
			c2.51,7.04,3.51,11.64-2.51,12.07c-7.04,0.5-11.57-8.55-11.57-8.55s-5.75,3.48-20.62,9.05c0,0-53.49,20.77-89.25,10.72
			C723.99,442.62,672.67,404.08,672.67,404.08z"/>
		<path class="st7" d="M348.4,217.26c-4.59,1.75-7.38,3.84-4.72,8.27s3.84,2.66,11.51,2.07c7.67-0.59,18.6,5.02,22.43,14.46
			s2.66,10.92,0.59,12.1c-2.07,1.18-16.83,2.95-17.42,5.9c-0.59,2.95,5.98,11.66,19.56,11.07l3.25-0.59c0,0,28.56,27.89,32.69,32.02
			c4.13,4.13,34.5,24.71,51.23,28.89c12.72,3.18,38.48-0.92,53.96-3.94c7.52-1.47,12.61-2.68,12.61-2.68s-11.62-20.93-13.98-53.1
			c0,0-27.79,4.47-46.26,8.52c0,0-43.1-24.03-64.06-34.65c0,0-18.3-22.43-26.86-25.39C374.38,217.26,354.6,214.9,348.4,217.26z"/>
		<path class="st6" d="M521.49,327.52c7.52-1.47,12.61-2.68,12.61-2.68s-14.05-17.71-16.41-49.89c0,0-6.35,6.85-4.38,25.07
			C515.79,322.92,521.49,327.52,521.49,327.52z"/>
		<path class="st22" d="M517.01,271.35c0,0,0.39,39.32,10.92,55.72l3.78-1.51c0,0-49.64,58.07-65.69,96.02
			c-2.63,6.21,103.06,73.72,118.68,72.78c0,0,51.49-78.59,69.11-101.89l18.93,14.67c0,0,37.13-37.6,39.12-50.95
			c0,0-35.86-43.64-65.2-56.41c-29.34-12.78-55.55-34.66-87.07-34.07C532.3,266.21,517.01,271.35,517.01,271.35z"/>
		<polygon class="st6" points="672.73,407.13 653.8,392.46 656.81,384.24 		"/>
		<path class="st7" d="M701.52,251.66c-3.31,10.31-12.88,40.13-23.56,43.81c-10.68,3.68-21.79-0.94-21.79-0.94l-11.37,5.82
			c-1.27,3.81-10.24,7.08-21.83,7.53c-8.58,0.33-13.81-10.69-11.27-18.67c1.17-3.66,5.52-21.72,5.52-21.72s9.2-33.87,17.67-40.86
			s16.42-13.92,39.02-4.79C708.51,235.83,701.52,251.66,701.52,251.66z"/>
		<path class="st19" d="M632.92,253.12c-1.52,6.33-8.1,18.99-12.41,16.71s-5.82-8.1-2.78-19.24c3.04-11.14,5.57-36.46,14.18-41.02
			c8.61-4.56,12.41,0.76,12.41,0.76s-3.8-18.48,7.34-21.01c0,0,3.8-1.77,2.28,10.89c0,0,4.3-11.65,18.23-10.13
			c13.92,1.52,18.74,21.01,18.74,21.01s1.01-5.32,7.34-5.32s15.95,9.37,13.67,19.75c0,0,16.2-5.07,24.81,7.85
			c8.61,12.91,7.6,27.09-13.17,32.66c-21.71,5.82-21.52-19.49-24.81-22.79c-3.29-3.29-6.84-7.09-18.99-2.53
			c-12.15,4.56-24.81-8.86-24.81-8.86s-2.03,16.2-4.05,17.72c-2.03,1.52-6.08,3.54-5.06-4.05c1.01-7.6,2.28-6.84,1.52-8.86
			c-0.76-2.03-4.19-8.42-11.39-2.78C627.85,240.21,632.92,253.12,632.92,253.12z"/>
		<path class="st23" d="M636.36,255.96c-4.83-4.06-8.18-11.21-3.93-18.35c4.25-7.15,11.2-8.11,13.33-5.41
			c2.12,2.7,2.95,7.26,0.95,12.67"/>
		<path d="M517.67,739.93l2.42,5.55l-7.45,29.06c-0.94,3.66,0.28,7.53,3.14,10l0,0l36.88-54.52c3.5-5.18,2.71-12.14-1.87-16.4
			l-8.24-7.66L517.67,739.93z"/>
		<path class="st23" d="M644.31,210.34c0,0-2.82-9.19-11.29-11.61"/>
		<line class="st4" x1="464.86" y1="418.8" x2="567.04" y2="276.06"/>
		<path class="st4" d="M609.16,286.05c-3.68,4.79-5.36,25.39,11.58,26.72s27.77-6.1,27.77-6.1"/>
		<path class="st4" d="M382.94,220.21c0,0,11.68,15.46,13.52,20.97"/>
		<path class="st4" d="M820.28,427.47c0,0,7.8,6.42,23.34-1.89c5.64-3.02,1.62-10.15-5.51-8.37s-15.6-0.89-15.6-0.89"/>
		<path class="st4" d="M852.88,415.05c0,0,7.49,8.73,7.28,13.92"/>
		<path class="st4" d="M742.7,414.1c0,0,6.77-9.02,15.42-9.64"/>
		<path class="st4" d="M457.24,294.83c0,0,3.95-12.31,16.62-14.57"/>
		<path class="st4" d="M491.56,481.65l-15.11,28.9c0,0-49.81,84.29-32.91,138.75"/>
		<path class="st4" d="M535.68,578.36l49.01-84.01c0,0,64.23-93.16,70.8-106.31l22.67-41.94"/>
		<path class="st4" d="M471.7,427.75c0,0,87.15,63.54,112.99,66.6"/>
		<path class="st4" d="M517.01,271.35c0,0-0.08,39.87,10.67,56.22"/>
		<path class="st4" d="M709.05,349.86c-2.74,16.44-39.12,50.95-39.12,50.95"/>
	</g>
	<circle class="st6" cx="437.6" cy="549.37" r="5.18"/>
	<g>
		<path class="st19" d="M863.64,518.2l-52.47-24.62c-4.23-1.99-4.16-8.03,0.12-9.92l97.61-42.95c1.38-0.61,2.95-0.62,4.34-0.02
			l67.05,28.78L863.64,518.2z"/>
		<path class="st24" d="M860.39,437.28c0.13,21.71,3.25,80.92,3.25,80.92l116.65-48.73l-2.62-82.39c-0.16-5.06-5.42-8.32-10.02-6.22
			l-100.44,45.77C863.05,428.53,860.37,432.69,860.39,437.28z"/>
		<path class="st4" d="M863.64,518.2l116.65-48.73l-2.62-82.39c0,0-0.78-9-10.02-6.22"/>
		<line class="st4" x1="920.11" y1="458.98" x2="927.98" y2="440.37"/>
		<line class="st4" x1="927.98" y1="458.98" x2="935.86" y2="440.37"/>
	</g>
	<g>
		<path class="st14" d="M348.52,234.9c-181.48-75.23-321.19,69.66,20.9,291.51c26.94,17.47,68.25,23.6,68.25,23.6"/>
	</g>
	<line class="st16" x1="130.42" y1="431.13" x2="145.15" y2="431.13"/>
</g>
</svg>
