<?xml version="1.0" encoding="utf-8"?>
<!-- Generator: Adobe Illustrator 26.0.1, SVG Export Plug-In . SVG Version: 6.00 Build 0)  -->
<svg version="1.1" id="Layer_1" xmlns="http://www.w3.org/2000/svg" xmlns:xlink="http://www.w3.org/1999/xlink" x="0px" y="0px"
	 viewBox="0 0 1105 910" style="enable-background:new 0 0 1105 910;" xml:space="preserve">
<style type="text/css">
	.st0{fill:#646FAD;}
	.st1{fill:#303669;}
	.st2{fill:#FFFFFF;}
	.st3{fill:#A0C6F4;}
	.st4{fill:none;stroke:#2A1E17;stroke-linecap:round;stroke-linejoin:round;stroke-miterlimit:10;}
	.st5{fill:#2A1E17;}
	.st6{fill:#EAECEC;}
	.st7{fill:#F9865F;}
	.st8{fill:#FF6D66;}
	.st9{fill:#FAD8B0;}
	.st10{fill:#FFF7DC;}
	.st11{fill:#FFE1C0;}
	.st12{fill:#FFFFFF;stroke:#2A1E17;stroke-linecap:round;stroke-linejoin:round;stroke-miterlimit:10;}
	.st13{fill:#91BA83;}
	.st14{fill:none;stroke:#7595EC;stroke-linecap:round;stroke-linejoin:round;stroke-miterlimit:10;}
	.st15{fill:#96BD89;}
	.st16{fill:none;stroke:#FF6D66;stroke-linecap:round;stroke-linejoin:round;stroke-miterlimit:10;}
	.st17{fill:none;stroke:#FAD8B0;stroke-miterlimit:10;}
	.st18{fill:none;stroke:#A0C6F4;stroke-linecap:round;stroke-linejoin:round;stroke-miterlimit:10;}
	.st19{fill:#2A1E33;}
	.st20{fill:#7595EC;}
	.st21{fill:#FF8A66;}
	.st22{fill:#FFF7C9;}
	.st23{fill:none;stroke:#2A1E33;stroke-linecap:round;stroke-linejoin:round;stroke-miterlimit:10;}
	.st24{fill:#C6CBCB;}
	.st25{fill:none;stroke:#171B43;stroke-linecap:round;stroke-linejoin:round;stroke-miterlimit:10;}
	.st26{fill:none;}
</style>
<g>
	<g>
		<g>
			<g>
				<path class="st2" d="M730.27,313.76c-38.33-36.46-80.49-56.26-109.29-66.49c-25.56-9.08-45.39-12.41-52.19-13.36
					c13.88-37.53,36.21-95.51,40.61-100.73c1.24-0.2,5.01-0.71,11.12-0.71c14.7,0,46.14,3.05,91.5,23.46
					c68.41,30.78,84.85,66.14,87.29,72.36L730.27,313.76z"/>
				<path class="st3" d="M620.52,134.46c14.54,0,45.66,3.03,90.68,23.29c38.66,17.4,60.15,36.1,71.37,48.73
					c8.98,10.11,12.98,18.03,14.45,21.46l-66.95,82.89c-38.16-35.75-79.84-55.29-108.42-65.44c-23.4-8.31-41.68-11.8-50.13-13.11
					c16.09-43.42,34.34-89.93,39.03-97.25C612.22,134.81,615.57,134.46,620.52,134.46 M620.52,130.46c-7.91,0-11.98,0.83-11.98,0.83
					c-4.62,1.54-42.5,104.28-42.5,104.28s89.91,9.17,164.42,81.14l71.12-88.05c0,0-11.87-39.97-88.73-74.56
					C667.81,133.83,636.42,130.46,620.52,130.46L620.52,130.46z"/>
			</g>
			<path class="st4" d="M579.24,243.56c0,0,88.41,8.93,142.89,58.94"/>
			<polygon class="st3" points="655.59,239.24 688.57,175.11 722.47,241.99 			"/>
			<polygon class="st4" points="662,238.33 694.98,174.2 728.88,241.08 			"/>
		</g>
		<path class="st4" d="M631.04,126.57c0,0,99.13,8.93,160.75,82.16"/>
	</g>
	<path class="st5" d="M681.69,410.77c-5.44-4-9.02-6.69-9.02-6.69c1.51-2.01,25.36-27.43,39.18-47.9
		C711.85,356.18,683.92,412.4,681.69,410.77z"/>
	<path class="st4" d="M343.68,225.53c2.66,4.43,3.84,2.66,11.51,2.07c7.67-0.59,18.6,5.02,22.43,14.46s2.66,10.92,0.59,12.1
		c-2.07,1.18-16.83,2.95-17.42,5.9"/>
	<circle class="st8" cx="498.34" cy="220.01" r="11.1"/>
	<g>
		<g>
			<path class="st3" d="M296.88,139.33c0.49,0,0.88,0.4,0.88,0.88c0,0.49-0.4,0.88-0.88,0.88s-0.88-0.4-0.88-0.88
				C296,139.72,296.4,139.33,296.88,139.33 M296.88,135.33c-2.7,0-4.88,2.19-4.88,4.88s2.19,4.88,4.88,4.88
				c2.7,0,4.88-2.19,4.88-4.88S299.58,135.33,296.88,135.33L296.88,135.33z"/>
		</g>
	</g>
	<circle class="st9" cx="950.85" cy="736.62" r="4.88"/>
	<circle class="st8" cx="317.92" cy="655.17" r="4.88"/>
	<circle class="st8" cx="729.43" cy="679.35" r="6.78"/>
	<g>
		<path class="st10" d="M368.5,727.53c7.94,3.81,31.05,13.42,61.63,13.21c1.67-0.01,2.97,1.47,2.76,3.13l-4.26,33.8
			c-0.15,1.2-1.06,2.16-2.25,2.39c-8.64,1.62-43.45,6.4-69.5-15.69c-0.81-0.69-1.14-1.8-0.87-2.83l8.61-32.22
			C365.07,727.65,366.93,726.78,368.5,727.53z"/>
		<path class="st4" d="M371.56,737.47c0,0,15.05,21.14,20.41,24.17c5.36,3.03,34.33-14.24,34.33-14.24"/>
		<line class="st4" x1="406.16" y1="758.69" x2="421.96" y2="774.93"/>
		<line class="st4" x1="384.2" y1="755.55" x2="365.71" y2="760.58"/>
	</g>
	<rect x="834.8" y="327.74" class="st11" width="17.66" height="17.66"/>
	<g>
		<polygon class="st3" points="837.19,565.92 842.44,575.01 847.69,584.1 837.19,584.1 826.7,584.1 831.95,575.01 		"/>
	</g>
	<g>
		<path class="st4" d="M412.81,163.2l1.37-41.27c-0.14-3.85,1.42-5.08,3.8-5.6c11.21-2.48,45.29-10.08,82.35,0.88
			c4.79,1.42,4.64,3.95,4.56,6.23l-1.32,39.34c-0.1,2.89-3.12,4.98-6.48,4.49c-10.82-1.58-25.54-2.07-40.49-1.95
			c-15.44,0.13-29.21,1.28-38.84,3.13C414.08,169.16,412.71,166.43,412.81,163.2z"/>
		<path class="st4" d="M425.29,157.17l21.57-25.25l23.88,23.57C462.51,152.8,425.29,157.17,425.29,157.17z"/>
		<polyline class="st4" points="460.08,143.6 477.52,129.65 492.22,140.14 492.77,156.54 470.74,155.48 		"/>
		
			<ellipse transform="matrix(0.1006 -0.9949 0.9949 0.1006 258.1883 544.8596)" class="st4" cx="430.45" cy="129.63" rx="3.6" ry="4.25"/>
	</g>
	<g>
		<path class="st4" d="M829.97,699.36l14.47,26.72c1.52,2.39,0.98,3.76-0.33,4.97c-6.2,5.74-25.02,23.24-52.64,30.06
			c-3.57,0.88-4.41-0.79-5.21-2.26l-13.78-25.48c-1.01-1.87,0.13-4.32,2.45-5.26c7.46-3.02,16.99-8.18,26.44-13.81
			c9.76-5.82,18.08-11.67,23.5-16.43C826.94,696.04,828.84,697.27,829.97,699.36z"/>
		<path class="st4" d="M824.29,707.83l-4.32,24.06l-23.93-6.09C802.27,724.44,824.29,707.83,824.29,707.83z"/>
		<polyline class="st4" points="807.23,729.38 801.34,744.73 788.1,743.53 781.66,733.32 796.04,725.8 		"/>
		
			<ellipse transform="matrix(0.9095 -0.4157 0.4157 0.9095 -227.0945 411.3787)" class="st4" cx="831.24" cy="727.24" rx="3.13" ry="2.65"/>
	</g>
	<g>
		<g>
			<path class="st12" d="M759.52,243.16l58.8,45c1.29,0.99,3.14,0.72,4.1-0.58l8.88-12.03c0.93-1.26,0.7-3.02-0.52-3.99
				l-57.97-46.38c-1.3-1.04-3.19-0.78-4.17,0.56l-9.71,13.41C758.01,240.43,758.27,242.21,759.52,243.16z"/>
			<polygon class="st8" points="763.87,241.15 778.13,251.16 786.54,241.12 772.28,229.22 			"/>
			<polygon class="st9" points="783.5,255.06 797.77,266.39 805.43,256.97 791.06,245.31 			"/>
			<polygon class="st3" points="802.58,270.74 816.84,280.75 823.63,272.02 810.12,260.72 			"/>
		</g>
		<g>
			<path class="st12" d="M876.84,180.25l13.4,112.59c0.29,2.47,2.56,4.22,5.02,3.88l22.69-3.11c2.37-0.32,4.05-2.46,3.82-4.84
				l-11-113.15c-0.25-2.53-2.56-4.34-5.07-3.97l-25.09,3.67C878.22,175.67,876.55,177.85,876.84,180.25z"/>
			<polygon class="st8" points="883.69,182.88 887.93,209.21 907.94,207.73 905.76,179.37 			"/>
			<polygon class="st13" points="889.38,219.27 892.2,247.04 910.7,245.38 908.16,217.16 			"/>
			<polygon class="st9" points="892.55,256.96 896.8,283.29 913.63,281.43 911.61,254.53 			"/>
		</g>
		<path class="st12" d="M847.59,204.22l37.1,109.06c0.64,1.87,2.69,2.86,4.55,2.19l23.24-8.37c1.79-0.64,2.75-2.58,2.17-4.4
			l-34.84-110.14c-0.61-1.93-2.71-2.95-4.6-2.25l-25.5,9.44C847.91,200.43,846.97,202.4,847.59,204.22z"/>
		<polygon class="st3" points="855.12,206.21 864.75,231.08 884.01,225.47 875.99,198.18 		"/>
		<polygon class="st7" points="868.26,240.62 876.79,267.19 894.55,261.73 886.18,234.65 		"/>
		<polygon class="st9" points="879.2,276.82 888.83,301.7 904.9,296.38 897.33,270.49 		"/>
	</g>
	<g>
		<path class="st13" d="M308.31,258.05l-4.07-4.46l-9.79,8.94l4.07,4.46c0.63,0.69,1.71,0.74,2.4,0.11l7.28-6.65
			C308.9,259.81,308.94,258.74,308.31,258.05z"/>
		<path class="st4" d="M289.49,235.17l15.22,16.66c0.36,0.4,0.34,1.02-0.06,1.38l-11.04,10.08c-0.4,0.36-1.02,0.34-1.38-0.06
			l-15.22-16.66c-0.36-0.4-0.34-1.02,0.06-1.38l11.04-10.08C288.5,234.75,289.12,234.77,289.49,235.17z"/>
	</g>
	<g>
		<rect x="245.58" y="316.6" class="st8" width="17.51" height="15.98"/>
		<polyline class="st4" points="245.58,306.31 245.58,316.6 235.11,316.6 		"/>
	</g>
	<g>
		<rect x="822.29" y="136.1" class="st9" width="17.51" height="15.98"/>
		<polyline class="st4" points="822.29,125.81 822.29,136.1 811.82,136.1 		"/>
	</g>
	<g>
		<path class="st12" d="M205.36,596.02l14.11,72.68c0.31,1.59,1.87,2.62,3.45,2.29l14.63-3.11c1.53-0.32,2.52-1.8,2.26-3.33
			l-12.57-73.17c-0.28-1.64-1.87-2.7-3.49-2.34l-16.16,3.59C206.05,592.98,205.06,594.48,205.36,596.02z"/>
		<polygon class="st8" points="209.95,597.41 213.97,614.36 226.93,612.43 224.16,594.07 		"/>
		<polygon class="st9" points="215.4,620.84 218.56,638.79 230.53,636.83 227.52,618.56 		"/>
		<polygon class="st3" points="219.26,645.23 223.28,662.18 234.16,660.16 231.56,642.74 		"/>
	</g>
	<g>
		<polygon class="st4" points="609.27,778.19 668.89,762.23 671.16,768.69 610.88,784.34 		"/>
		<g>
			<line class="st4" x1="601" y1="769.85" x2="602.72" y2="775.27"/>
			<line class="st4" x1="599.32" y1="773.38" x2="604.35" y2="771.66"/>
		</g>
		<g>
			<line class="st4" x1="598.11" y1="790.52" x2="601.35" y2="800.73"/>
			<line class="st4" x1="595.35" y1="797" x2="604.3" y2="794.15"/>
		</g>
		<g>
			<line class="st4" x1="584.49" y1="773.67" x2="588.72" y2="787.19"/>
			<line class="st4" x1="580.28" y1="782.09" x2="592.84" y2="778.09"/>
		</g>
	</g>
	<g>
		<polygon class="st14" points="174.62,130.61 136.9,113.59 138.46,109.27 176.4,126.74 		"/>
		<g>
			<line class="st14" x1="175.37" y1="138.45" x2="176.78" y2="134.91"/>
			<line class="st14" x1="177.74" y1="137.34" x2="174.4" y2="136.1"/>
		</g>
		<g>
			<line class="st14" x1="185.65" y1="128.95" x2="188.3" y2="122.28"/>
			<line class="st14" x1="189.84" y1="126.77" x2="183.98" y2="124.44"/>
		</g>
		<g>
			<line class="st14" x1="185.57" y1="143.49" x2="189.11" y2="134.67"/>
			<line class="st14" x1="191.33" y1="140.9" x2="183.11" y2="137.65"/>
		</g>
	</g>
	<g>
		<path class="st9" d="M297.59,449.2c-26.59-19.14-52.71-48.89-41.25-79.45c0,0,18.34-12.22,47.37,3.06
			c29.03,15.28,29.03,15.28,29.03,15.28L297.59,449.2z"/>
		<g>
			<path class="st2" d="M286.2,578.65c-9.15-4.18-64.64-31.34-74.23-79.33c-8.57-42.85,27.25-101.55,40.68-121.63
				c-5.45,32.83,28.31,61.37,44.07,72.72c15.7,11.31,26.63,16.43,43.09,22.53L286.2,578.65z"/>
			<path class="st9" d="M250.57,383.56c-0.89,31.01,30.24,57.25,45.27,68.07c15.23,10.96,26.43,16.33,41.87,22.13l-52.19,102.93
				c-5.22-2.45-17.77-8.81-30.99-18.91c-15.8-12.06-35.75-32.04-41.09-58.75c-5.35-26.77,7.17-59.9,18.61-82.98
				C238.54,402.97,245.42,391.56,250.57,383.56 M256.34,369.74c0,0-56.53,76.4-45.84,129.88c10.7,53.48,76.4,80.98,76.4,80.98
				l55.01-108.48c-17.19-6.3-28.36-11.43-44.31-22.92C271,430.05,244.88,400.3,256.34,369.74L256.34,369.74z"/>
		</g>
		<path class="st4" d="M241.47,414.14c0,0,3.29,30.69,33.98,47.13"/>
		<line class="st4" x1="291.89" y1="472.23" x2="322.58" y2="488.67"/>
		<path class="st4" d="M245.86,457.98c0,0,9.86,21.92,41.65,36.17"/>
		<path class="st4" d="M220.65,461.27c0,0,1.1,23.02,16.44,30.69"/>
		<path class="st4" d="M255.72,381.26c0,0-2.84,29.56,41.87,67.94"/>
		<path class="st4" d="M272.16,386.74c0,0,14.25-1.1,35.07,14.25"/>
		<path class="st14" d="M205.15,481.11c-0.92,14.66,0.92,67.8,77.87,101.7"/>
	</g>
	<g>
		<path class="st13" d="M714.58,451.55l-32.64,65.42c0,0,22.14,8.15,4.83,33.53c0,0,40.92,16.97,67.7-27.11
			S714.58,451.55,714.58,451.55z"/>
		<g>
			<path class="st2" d="M639.87,652.94c-17.17,0-35.26-7.11-53.78-21.14l62.52-103.56l37.47,23.6l0.12,0.05
				c0.33,0.14,8.15,3.33,19.27,3.33c0,0,0,0,0,0c10.62,0,24.53-2.95,37.37-14.91l-48.72,83.34
				C693.97,623.88,674.37,652.94,639.87,652.94C639.87,652.94,639.87,652.94,639.87,652.94z"/>
			<path class="st15" d="M649.09,530.32l36.07,22.72l0.22,0.14l0.23,0.1c0.34,0.14,8.43,3.44,19.85,3.44
				c9.14,0,20.67-2.13,31.91-10.03l-44.5,76.12c-0.48,0.7-5.29,7.6-13.85,14.4c-11.91,9.45-25.09,14.24-39.15,14.24
				c-16.5,0-33.92-6.74-51.8-20.03L649.09,530.32 M754.47,523.39c-15.13,24.9-34.77,30.32-49,30.32c-10.95,0-18.7-3.21-18.7-3.21
				l-38.66-24.34l-64,106.02c21.43,16.52,40.13,22.27,55.77,22.27c35.76,0,55.55-30.04,55.55-30.04L754.47,523.39L754.47,523.39z"/>
		</g>
		<path class="st4" d="M681.93,516.97c0,0,24.35,8.6,4.83,33.53"/>
		<path class="st4" d="M647.35,523.88c0,0,33.16,30.38,51.52,30.17c18.36-0.2,39.89-4.58,52.59-26.48"/>
		<path class="st4" d="M651.42,563.18c0,0,22.76,20.21,48.22,13.72"/>
		<path class="st4" d="M675.33,593.39c0,0,11.94,8.95,28.64,0.49"/>
		<path class="st4" d="M620.39,605.84c0,0,27.56,27.41,70.94,9.33"/>
		<path class="st4" d="M635.38,579.11c0,0,11.24,8.04,18.29,10.61"/>
		<path class="st4" d="M720.18,470.54c0,0,25.16,8.23,28.17,41.43"/>
		<path class="st4" d="M732.83,511.57c0,0,11.58,17.92-7.99,35.85"/>
		<path class="st4" d="M586.44,637.18c0,0,63.18,54.11,109.02-9.16"/>
	</g>
	<line class="st16" x1="130.42" y1="431.13" x2="145.15" y2="431.13"/>
	<line class="st16" x1="950.85" y1="253.99" x2="965.57" y2="253.99"/>
	<line class="st17" x1="555.89" y1="152.94" x2="570.62" y2="152.94"/>
	<line class="st17" x1="978.97" y1="330.38" x2="993.46" y2="332.98"/>
	<line class="st18" x1="400.43" y1="697.87" x2="415.16" y2="697.87"/>
	<circle class="st13" cx="1010.69" cy="514.27" r="4.88"/>
	<circle class="st13" cx="94.31" cy="280.19" r="4.88"/>
</g>
</svg>
